HIERARCHY
ROOT Hips
{
	OFFSET -0.001795 -0.223333 0.028219
	CHANNELS 6 Xposition Yposition Zposition Zrotation Yrotation Xrotation 
	JOINT LeftUpLeg
	{
		OFFSET 0.069520 -0.091406 -0.006815
		CHANNELS 3 Zrotation Yrotation Xrotation
		JOINT LeftLeg
		{
			OFFSET 0.034277 -0.375199 -0.004496
			CHANNELS 3 Zrotation Yrotation Xrotation
			JOINT LeftFoot
			{
				OFFSET -0.013596 -0.397961 -0.043693
				CHANNELS 3 Zrotation Yrotation Xrotation
				JOINT LeftToe
				{
					OFFSET 0.026358 -0.055791 0.119288
					CHANNELS 3 Zrotation Yrotation Xrotation
					End Site
					{
						OFFSET 0.000000 0.000000 0.000000
					}
				}
			}
		}
	}
	JOINT RightUpLeg
	{
		OFFSET -0.067670 -0.090522 -0.004320
		CHANNELS 3 Zrotation Yrotation Xrotation
		JOINT RightLeg
		{
			OFFSET -0.038290 -0.382569 -0.008850
			CHANNELS 3 Zrotation Yrotation Xrotation
			JOINT RightFoot
			{
				OFFSET 0.015774 -0.398415 -0.042312
				CHANNELS 3 Zrotation Yrotation Xrotation
				JOINT RightToe
				{
					OFFSET -0.025372 -0.048144 0.123348
					CHANNELS 3 Zrotation Yrotation Xrotation
					End Site
					{
						OFFSET 0.000000 0.000000 0.000000
					}
				}
			}
		}
	}
	JOINT Spine
	{
		OFFSET -0.002533 0.108963 -0.026696
		CHANNELS 3 Zrotation Yrotation Xrotation
		JOINT Spine1
		{
			OFFSET 0.005487 0.135180 0.001092
			CHANNELS 3 Zrotation Yrotation Xrotation
			JOINT Spine2
			{
				OFFSET 0.001457 0.052922 0.025425
				CHANNELS 3 Zrotation Yrotation Xrotation
				JOINT Neck
				{
					OFFSET -0.002778 0.213870 -0.042857
					CHANNELS 3 Zrotation Yrotation Xrotation
					JOINT Head
					{
						OFFSET 0.005152 0.064970 0.051349
						CHANNELS 3 Zrotation Yrotation Xrotation
						End Site
						{
							OFFSET 0.000000 0.000000 0.000000
						}
					}
				}
				JOINT LeftShoulder
				{
					OFFSET 0.078845 0.121749 -0.034090
					CHANNELS 3 Zrotation Yrotation Xrotation
					JOINT LeftArm
					{
						OFFSET 0.090977 0.030469 -0.008868
						CHANNELS 3 Zrotation Yrotation Xrotation
						JOINT LeftForeArm
						{
							OFFSET 0.259612 -0.012772 -0.027456
							CHANNELS 3 Zrotation Yrotation Xrotation
							JOINT LeftHand
							{
								OFFSET 0.249234 0.008986 -0.001171
								CHANNELS 3 Zrotation Yrotation Xrotation
								End Site
								{
									OFFSET 0.000000 0.000000 0.000000
								}
							}
						}
					}
				}
				JOINT RightShoulder
				{
					OFFSET -0.081759 0.118833 -0.038615
					CHANNELS 3 Zrotation Yrotation Xrotation
					JOINT RightArm
					{
						OFFSET -0.096012 0.032551 -0.009143
						CHANNELS 3 Zrotation Yrotation Xrotation
						JOINT RightForeArm
						{
							OFFSET -0.253742 -0.013329 -0.021401
							CHANNELS 3 Zrotation Yrotation Xrotation
							JOINT RightHand
							{
								OFFSET -0.255298 0.007772 -0.005559
								CHANNELS 3 Zrotation Yrotation Xrotation
								End Site
								{
									OFFSET 0.000000 0.000000 0.000000
								}
							}
						}
					}
				}
			}
		}
	}
}
MOTION
Frames: 8
Frame Time: 0.050000
0.000000 0.291198 0.000000 -2.277166 -2.425829 -24.150588 30.595986 17.013349 -78.569971 -14.419180 37.943172 141.295813 9.751137 26.961206 -36.705641 0.000000 0.000000 0.000000 -30.278210 -14.217444 -81.950590 32.285594 -54.256321 118.688514 -9.096032 -40.119682 -34.538955 0.000000 0.000000 0.000000 0.290704 -3.322521 82.116151 -9.760302 2.906283 -31.008455 -1.534464 6.220815 25.665249 18.250787 -13.267882 -15.895206 0.000000 0.000000 0.000000 12.580988 -33.648035 6.150125 -14.843255 -29.458855 0.186279 103.659611 -62.933306 -75.767352 0.000000 0.000000 0.000000 -2.903047 16.392776 4.102219 7.883122 34.878641 -0.034780 -91.725003 58.677131 -56.840425 0.000000 0.000000 0.000000 
-0.001026 0.282472 0.004179 -3.033476 -2.271260 -23.209004 31.420138 18.172270 -81.147845 -11.758164 35.628982 147.013616 9.358743 23.354235 -35.321311 0.000000 0.000000 0.000000 -31.838195 -16.485709 -84.880665 30.541030 -56.012732 122.900098 -10.135371 -38.812905 -28.329767 0.000000 0.000000 0.000000 -0.684166 -2.817918 83.991314 -9.454411 2.578600 -34.135089 0.882103 9.865796 26.233400 19.461606 -13.563276 -16.316909 0.000000 0.000000 0.000000 13.555351 -34.134694 6.345104 -14.586263 -33.709038 0.165080 105.011788 -62.756101 -78.709254 0.000000 0.000000 0.000000 -2.898265 13.783950 3.266396 6.190524 35.389945 -0.199266 -93.491885 64.070415 -62.440936 0.000000 0.000000 0.000000 
-0.001172 0.275026 0.008174 -2.749373 0.973228 -24.712962 29.745433 14.586502 -81.478291 -11.553978 35.748126 147.228179 9.685781 25.351892 -36.875689 0.000000 0.000000 0.000000 -31.220807 -18.512013 -85.497914 25.545720 -54.589335 130.635857 -10.845903 -40.040575 -23.954468 0.000000 0.000000 0.000000 0.244200 -5.275815 84.106917 -5.298589 2.026199 -32.037929 -4.503960 11.636898 25.000267 23.289026 -18.032810 -13.827268 0.000000 0.000000 0.000000 8.899855 -35.486229 7.825328 -10.174462 -31.396665 -0.461851 102.892471 -64.606390 -80.405520 0.000000 0.000000 0.000000 -0.647699 16.864509 4.554475 1.798721 33.229310 -0.826059 -89.896744 64.721454 -59.937562 0.000000 0.000000 0.000000 
-0.000129 0.268904 0.011911 -1.699465 0.100922 -25.276723 30.471727 15.657502 -80.218475 -13.423592 43.770518 146.768104 10.432276 31.963491 -36.126183 0.000000 0.000000 0.000000 -30.648903 -17.774502 -87.767198 22.011988 -52.777703 135.564538 -11.594035 -38.939792 -19.111940 0.000000 0.000000 0.000000 1.263522 -5.653317 85.248697 -7.700665 2.519858 -32.246289 -5.125990 9.649137 24.661535 23.025999 -18.389615 -13.155045 0.000000 0.000000 0.000000 11.007002 -34.390326 6.968037 -10.796331 -31.225213 -0.336575 102.481635 -64.606663 -78.935921 0.000000 0.000000 0.000000 -3.085429 15.652468 3.638606 1.222224 34.578142 -0.940600 -91.000963 66.088159 -63.045151 0.000000 0.000000 0.000000 
0.001927 0.266663 0.015327 -1.489895 -0.648165 -25.428945 30.230730 15.664508 -78.644265 -14.395890 46.117860 145.762334 10.774015 35.577897 -36.404154 0.000000 0.000000 0.000000 -30.205521 -16.904906 -88.491223 20.816865 -50.956557 136.527216 -11.648939 -39.620055 -20.169851 0.000000 0.000000 0.000000 0.419838 -4.458288 85.374682 -6.714911 2.252333 -32.310137 -4.408750 10.655882 25.030081 23.120209 -18.736488 -12.349299 0.000000 0.000000 0.000000 11.817488 -32.505653 6.591331 -10.707079 -31.381099 -0.442585 107.349012 -64.308946 -84.315610 0.000000 0.000000 0.000000 -5.119519 17.469088 3.565009 0.652150 32.499122 -0.863620 -95.357039 65.969399 -66.427934 0.000000 0.000000 0.000000 
0.005031 0.267349 0.018430 -1.446056 -0.961203 -24.910370 30.296766 15.892474 -78.440565 -16.917927 52.135869 143.541993 11.863609 41.055470 -34.510650 0.000000 0.000000 0.000000 -30.899450 -17.368520 -88.761415 19.731030 -49.827653 137.915715 -10.956757 -37.035869 -20.933076 0.000000 0.000000 0.000000 1.897828 -5.593176 85.672525 -8.282251 2.556979 -33.120030 -4.535572 9.864558 24.801439 23.415168 -18.488399 -13.770825 0.000000 0.000000 0.000000 12.680392 -32.702134 6.367852 -11.884860 -31.873105 -0.294804 109.925068 -65.493305 -87.629890 0.000000 0.000000 0.000000 -5.446374 16.587670 3.335525 0.532693 32.892544 -0.936049 -102.609199 66.812778 -74.482726 0.000000 0.000000 0.000000 
0.008454 0.271547 0.021275 -1.255624 -0.785932 -25.190628 29.855107 15.352111 -77.983729 -18.702266 54.656766 141.494133 12.740838 44.030481 -32.820567 0.000000 0.000000 0.000000 -31.415078 -17.770165 -88.189993 18.971682 -47.738722 138.295544 -10.689659 -35.920026 -20.851107 0.000000 0.000000 0.000000 2.925741 -6.590805 86.206529 -8.847003 2.636654 -34.512350 -4.781077 8.746584 25.818258 23.396090 -18.918310 -13.625141 0.000000 0.000000 0.000000 12.373384 -32.163374 6.143642 -11.457938 -31.728014 -0.310431 112.434185 -64.583466 -88.733948 0.000000 0.000000 0.000000 -5.548428 16.740511 3.377553 -0.296911 32.435065 -1.095036 -107.351241 66.967103 -80.068450 0.000000 0.000000 0.000000 
0.011000 0.274615 0.023478 -1.295691 -0.781701 -24.604751 29.899879 15.576401 -78.776331 -18.943987 56.193658 141.777921 13.741957 44.915474 -29.532754 0.000000 0.000000 0.000000 -32.306584 -18.591101 -88.222026 17.179718 -44.734328 140.320529 -9.855696 -32.474042 -21.599949 0.000000 0.000000 0.000000 3.799111 -7.336779 86.118842 -8.895273 2.701897 -33.962937 -5.218201 8.246249 24.543830 23.435070 -19.202527 -13.003297 0.000000 0.000000 0.000000 9.921641 -31.859405 6.692532 -9.132229 -31.702755 -0.506945 115.731504 -64.042369 -91.883264 0.000000 0.000000 0.000000 -4.232304 16.162391 3.597998 -1.107852 31.509137 -1.211017 -117.833884 67.646344 -92.283054 0.000000 0.000000 0.000000 
